<svg width="102" height="120" viewBox="0 0 102 120" fill="none" xmlns="http://www.w3.org/2000/svg">
<path d="M58.365 119.745C56.8012 119.471 55.1812 118.729 54.2625 117.907C53.6388 117.253 53.2829 116.389 53.265 115.485C53.265 114.566 53.7337 113.276 54.4762 111.99C54.9262 111.266 55.2787 110.486 55.53 109.665C55.6875 109.099 56.0175 108.18 56.2725 107.595L56.7225 106.522L56.8387 99.3562C56.8987 95.3924 57.015 91.7212 57.1125 91.1512C57.3675 89.5087 57.795 87.9074 58.3612 86.3474L58.7925 85.3124L58.1662 84.9412C57.6 84.5887 57.1312 84.1012 55.275 81.8924C52.9912 79.1962 49.9837 77.7112 45.7237 77.2049C44.3362 77.0699 42.93 76.9687 41.5237 76.9124C35.2725 76.6199 31.6987 75.3112 28.4775 72.1462C26.0737 69.7837 24.825 67.0274 24.3187 62.9662C23.6362 57.4762 22.875 54.6637 21.4687 52.3799C21.1221 51.8159 20.7228 51.2861 20.2762 50.7974L19.71 50.2312L18.4612 51.0337C17.7787 51.4837 16.8187 52.0499 16.35 52.3049C14.7862 53.1637 13.3012 54.1199 11.8762 55.1549C8.38123 57.6937 4.57123 60.8774 2.48248 62.9662C1.54498 63.9037 1.05748 64.3124 0.839976 64.2749C-0.585024 64.0612 0.506226 57.8887 2.83123 53.2387C5.80123 47.2424 10.8 41.7149 16.5825 37.9837C21.33 34.9162 29.0062 30.6974 32.5575 29.2124C38.865 26.5762 47.0287 23.7224 52.6162 22.1999C53.79 21.8662 54.51 21.5737 54.9975 21.2437C56.0925 20.4824 57.165 20.1112 58.395 20.0924C59.43 20.0737 59.5275 20.0549 60.525 19.3874C61.6987 18.6262 62.0475 18.5849 63.2212 18.9974L63.9825 19.2712L64.92 18.6262L65.8575 17.9999L67.2037 18.0187C68.2387 18.0374 68.7075 17.9999 69.1575 17.8049C69.7237 17.5499 69.7425 17.5124 69.9 16.5749C70.2525 14.5424 70.29 13.5262 70.0762 12.2962C69.8025 10.6762 69.765 4.38744 70.0387 3.15369C70.3312 1.82619 70.5262 1.55244 71.5237 1.06494C73.0087 0.341191 74.1225 0.127441 76.68 0.127441C79.8037 0.127441 81.3862 0.558691 82.56 1.69119C83.6137 2.70744 83.79 5.08869 83.2425 10.6762C82.9087 13.8974 82.8712 14.7974 82.9687 16.9049C83.0062 18.2512 83.1037 19.5224 83.145 19.6987C83.2237 20.0324 83.3025 20.0512 84.435 20.0699C85.5487 20.0887 85.7437 20.1487 86.7975 20.6962C87.8137 21.2249 88.575 21.8699 88.7325 22.3387C88.7512 22.4362 88.9275 22.4362 89.2387 22.3387C89.8425 22.1624 90.3712 22.3574 90.8025 22.8862C91.0575 23.2199 91.2112 23.2762 91.8 23.2762C92.6025 23.2762 92.895 23.4712 93.5587 24.4499C93.8692 24.8892 94.2948 25.2344 94.7887 25.4474C95.8837 25.9949 97.3687 27.5174 97.935 28.7287C98.8125 30.5249 98.9887 32.6137 98.4412 34.4887C98.2462 35.1937 98.2462 35.2124 98.655 35.8949C99.5137 37.3612 99.8287 39.1574 99.4762 40.6799L99.2812 41.5799L99.8662 42.1649C102.776 45.0749 102.345 49.8224 98.7937 54.0599C98.3968 54.544 98.0617 55.0756 97.7962 55.6424C97.1137 57.4574 96.33 58.7287 95.3175 59.7824L94.2825 60.8362H93.2287C92.175 60.8362 90.69 60.4837 89.79 60.0149C89.4187 59.8199 89.4 59.8199 89.4787 60.0524C89.715 60.9112 90.3 64.4062 90.495 66.3412C90.8062 69.3112 90.7087 73.6274 90.3 75.4837C90.0013 76.8585 89.5008 78.1816 88.815 79.41C88.425 80.0362 88.4062 80.1712 88.4812 80.9324C88.5975 82.005 88.3462 83.8049 87.915 84.9937C87.3862 86.3812 87.1912 87.0262 87.075 87.7274C86.9775 88.3312 86.9775 88.3312 87.4087 88.3312C87.975 88.3312 88.2862 88.6649 88.2862 89.3287C88.2862 89.6212 88.0312 91.2037 87.72 92.8237C86.8612 97.3762 86.8012 97.8824 86.8012 102.296C86.7825 106.849 86.7825 106.807 87.8175 107.49L90.1425 108.994C92.1427 110.321 94.2847 111.422 96.5287 112.275C99.7912 113.565 100.241 113.895 100.241 114.99C100.241 115.477 100.144 115.654 99.735 116.044C98.4862 117.255 96.0225 117.529 91.0612 117C88.4832 116.758 85.8955 116.635 83.3062 116.629C76.47 116.531 75.4725 116.295 74.5762 114.596C74.07 113.621 74.1675 112.35 74.8687 110.261C75.18 109.342 75.4537 108.405 75.69 107.449C76.1587 105.184 75.8475 102.487 74.7525 99.4424L73.815 96.8437C72.8962 94.2075 72.39 89.3812 72.9375 88.2899C73.035 88.0762 73.2112 88.035 73.68 88.0537L74.265 88.1137L74.7525 87.0974C75.1237 86.2949 75.5325 85.77 76.6462 84.6562L78.0712 83.2312L77.9925 82.3124C77.9325 81.4349 76.7812 77.1749 76.6237 77.1937C76.5637 77.1937 76.2525 77.6249 75.9 78.1687C75.0412 79.4587 73.1475 81.4499 72.0712 82.1737C71.6025 82.4849 71.2125 82.8562 71.2125 82.9762C71.1937 83.505 70.7437 84.5399 70.1962 85.2599C69.6675 85.9649 69.63 86.0812 69.7087 86.7037C69.8437 87.6224 69.5512 90.5699 69.2025 92.1149C68.8864 93.2621 68.4541 94.3741 67.9125 95.4337C66.5662 98.2274 65.55 100.725 65.295 101.88C65.1108 102.992 64.9931 104.114 64.9425 105.24C64.8825 106.567 64.7475 107.857 64.65 108.131C64.515 108.502 64.515 108.795 64.6312 109.361C64.7287 109.77 64.7887 110.689 64.7662 111.412C64.7475 112.41 64.8262 113.055 65.1187 114.225C65.625 116.216 65.7225 117.469 65.49 118.211C65.3325 118.68 65.1787 118.856 64.65 119.111C63.4762 119.715 60.1575 120.049 58.3612 119.737L58.365 119.745ZM63.1087 118.144C63.7912 117.949 64.38 117.364 64.38 116.835C64.38 116.599 64.185 115.916 63.9487 115.312C63.48 114.161 62.6775 111.112 62.6775 110.606C62.6775 110.351 62.6962 110.332 63.0862 110.546L63.5175 110.782V110.235C63.4549 109.73 63.3431 109.233 63.1837 108.75C62.8125 107.636 62.775 107.617 60.4087 107.479L58.8075 107.4L58.2225 107.966C57.9008 108.297 57.6189 108.665 57.3825 109.061C57.1275 109.567 57.03 110.332 57.1875 110.505C57.225 110.565 57.6187 110.505 58.0462 110.407C58.3 110.332 58.5618 110.287 58.8262 110.272C58.8262 110.291 58.395 110.644 57.8512 111.015C55.5075 112.774 54.6862 113.846 54.6862 115.215C54.6862 116.64 56.0325 117.754 58.1437 118.087C59.5875 118.301 62.4 118.361 63.105 118.147L63.1087 118.144ZM94.8862 115.819C95.4712 115.114 95.3925 114.394 94.65 113.572C94.2187 113.141 93.7312 112.77 93.1837 112.477C92.6362 112.185 92.0887 111.851 91.5412 111.502C90.551 110.861 89.5338 110.261 88.4925 109.706C87.5925 109.219 86.715 108.709 85.8562 108.165L85.5037 107.891V102.521C85.5037 97.2299 85.485 97.1512 85.2112 97.2299C83.8425 97.6012 81.5775 97.7775 78.7087 97.7174L75.6037 97.6799L76.0537 98.7749C76.8937 100.845 77.325 103.62 77.325 106.804C77.325 107.996 77.2462 108.424 76.9537 109.264C76.7962 109.672 76.6612 110.085 76.5225 110.494C76.4625 110.67 76.68 110.805 77.4787 111.041C78.0637 111.217 78.9225 111.394 79.4137 111.45L80.3137 111.547L80.2162 112.447C80.1187 113.464 80.235 114.536 80.49 114.87C80.6475 115.065 81.2325 115.144 83.9475 115.26C85.9987 115.357 88.2262 115.571 89.9812 115.826C91.5037 116.062 93.1462 116.257 93.6337 116.257C94.455 116.276 94.5337 116.239 94.8825 115.826L94.8862 115.819ZM63.6187 106.68C63.6975 106.62 63.8137 105.566 63.855 104.317C64.0125 100.822 64.1475 100.312 65.9062 96.3674C67.35 93.1462 68.115 90.1387 68.055 88.0087L68.0175 86.7374L67.47 87.2662C66.3375 88.3987 67.1175 86.6212 68.4675 85.0387C69.4837 83.8274 69.8362 83.1637 69.99 82.0912C70.0687 81.66 70.2262 81.4462 70.89 80.9399C73.3735 79.0639 75.2871 76.5349 76.4175 73.6349C76.6912 72.9299 77.3925 70.5299 77.9812 68.3024C79.0762 64.1812 79.6612 62.4037 80.19 61.6424C80.385 61.3499 80.4637 61.2899 80.4262 61.4849C80.143 62.5323 79.9214 63.5954 79.7625 64.6687C79.605 65.6249 79.3125 67.4999 79.1175 68.8087C78.7462 71.4862 78.3562 73.2037 77.8275 74.5312L77.475 75.4312L78.4125 77.8537C79.3875 80.3324 79.8375 82.1324 79.9162 83.8687L79.9762 84.8437L79.215 85.0012C78.2102 85.179 77.3136 85.7396 76.7137 86.5649C76.05 87.5212 75.6787 88.3049 75.855 88.4774C75.9337 88.5562 76.89 88.7324 77.985 88.8674C79.6837 89.0624 80.3287 89.0624 82.575 88.9274C83.55 88.8899 84.51 88.7924 85.4662 88.6537C85.68 88.575 85.8975 88.1474 86.2462 87.0337C87.0487 84.4762 87.2025 83.5762 87.105 81.7799L87.0262 80.1974L87.435 79.6687C88.3912 78.4575 89.1337 76.2712 89.445 73.7099C89.8162 70.5862 89.1337 64.0424 87.8625 58.4174C87.2587 55.7399 87.0037 54.1387 87.0037 52.9687V51.9337L86.0475 52.0312C82.6087 52.4024 78.45 52.3049 75.9112 51.7762C74.5237 51.5024 71.0287 50.4674 70.2675 50.1337L69.6637 49.8599L69.585 50.5424C69.525 50.9137 69.4687 51.2849 69.39 51.6749C69.2737 52.0837 69.3112 52.1812 70.035 52.8862C70.935 53.8049 71.2087 54.2737 71.2087 54.8962C71.2087 55.2862 70.995 55.6012 69.9 56.7337C69.1149 57.5715 68.2438 58.3244 67.3012 58.9799L66.03 59.8387L65.4825 61.7324C63.5287 68.6662 63.1575 74.9737 64.4475 79.4849L64.7587 80.6174L64.1325 81.3974C61.7887 84.3449 60.4012 86.5912 60.1875 87.8437C60.0625 88.4604 59.9187 89.0732 59.7562 89.6812C59.25 91.6162 58.8562 94.4474 58.6837 97.5149C58.5635 100.083 58.3948 102.648 58.1775 105.21L58.08 105.971L59.055 106.264C59.6025 106.44 60.4237 106.635 60.8925 106.714C61.77 106.849 63.3937 106.811 63.645 106.676L63.6187 106.68ZM82.5825 95.9362C84.105 95.8387 85.4925 95.6024 85.7662 95.3699C85.8825 95.2912 86.0212 94.8824 86.0587 94.4699L86.1562 93.7274L84.945 94.0012C83.9887 94.1962 83.0325 94.3124 82.0725 94.3912C79.7662 94.4887 77.445 94.4287 75.1575 94.1962C74.3962 94.0799 74.3962 94.0799 74.6287 95.0737C74.8237 95.8162 74.865 95.8537 76.8562 95.9924C78.1837 96.1087 80.04 96.09 82.5787 95.9324L82.5825 95.9362ZM81.3112 92.5387C83.3025 92.3624 85.785 91.9349 86.2725 91.6799C86.43 91.6012 86.565 91.3087 86.625 90.9749L86.8012 89.9399L86.8987 89.4524L86.4112 89.5499C84.2437 89.9999 82.6012 90.1349 79.32 90.1349C76.1175 90.1349 75.7462 90.1162 74.9062 89.8237C74.5834 89.6876 74.2397 89.6077 73.89 89.5874C73.755 89.6662 73.7325 90.7799 73.8525 91.5599C73.9312 92.0287 74.01 92.1074 74.4787 92.2424C75.9637 92.6512 78.465 92.7487 81.315 92.5162L81.3112 92.5387ZM45.0637 74.9212C50.0625 73.4774 56.6062 69.2362 61.9575 63.9262C63.6975 62.1862 63.9112 61.9537 64.1437 61.1737L64.455 60.1762C64.4925 60.0974 64.1812 59.9624 63.7725 59.8649C62.7 59.6099 61.8787 58.9874 61.8787 58.4212C61.8787 58.0874 61.6837 57.7574 61.1175 57.1499C60.1987 56.1149 59.9662 55.6649 59.8687 54.6712L59.79 53.8687L58.695 53.0887C58.0687 52.6387 55.8825 51.4274 53.5575 50.2574C51.7872 49.3938 50.0544 48.4555 48.3637 47.4449C46.41 46.1362 45.1012 44.5724 44.3587 42.7199C44.2237 42.3487 44.0475 42.0374 43.9875 42.0374C43.83 42.0374 39.435 46.2749 37.56 48.2662C32.9325 53.1487 29.7487 57.3862 27.735 61.3124C27.2287 62.2874 26.6812 63.4424 26.5237 63.8699L26.2312 64.6499L26.5837 65.9587C26.7975 66.6637 27.2475 67.8149 27.6 68.4974C28.83 70.9199 30.2962 72.3824 32.7187 73.575C35.3175 74.8649 37.62 75.3149 41.4675 75.255C43.5375 75.2362 44.145 75.1762 45.06 74.9025L45.0637 74.9212ZM5.60998 57.7912C8.89123 54.8812 13.4212 51.6974 18.9712 48.3974C22.605 46.2299 36.6487 39.1987 43.1137 36.3262C44.2875 35.7974 45.3412 35.3099 45.4575 35.2537C45.5737 35.1749 45.9075 34.3349 46.2187 33.3974C47.5875 29.0624 48.27 28.2037 50.7487 27.6374C51.06 27.5587 51.1387 27.4612 51.1387 27.1499C51.1387 26.5837 51.5287 25.2749 51.8625 24.6899C52.1175 24.2399 52.1175 24.2212 51.9 24.2812C51.765 24.3187 50.9437 24.5549 50.085 24.8099C38.1712 28.2487 27.7612 32.8162 18.7762 38.5199C9.18748 44.6137 3.65998 51.9187 2.05873 60.6674L1.94248 61.3124L3.11623 60.1612C3.74248 59.5162 4.87498 58.4624 5.61748 57.8174L5.60998 57.7912ZM93.99 59.4524C94.9462 58.9649 96.4312 56.7187 96.9787 54.9412C97.1362 54.3149 97.4475 53.7299 97.8975 53.2424C99.3412 51.6412 100.534 48.7312 100.552 46.7399C100.552 43.6349 98.7937 42.4424 96.2362 43.7699C95.9025 43.9274 95.6325 44.0437 95.5912 44.0062C95.4562 43.8712 96.1762 43.1662 97.0575 42.6187C98.2087 41.8574 98.4262 41.4074 98.4262 39.7874C98.4432 38.478 98.0541 37.1955 97.3125 36.1162C96.96 35.5874 96.825 35.2387 96.8812 35.0212L97.2337 33.7124C97.7212 31.9724 97.545 29.9812 96.7837 28.7137C95.6512 26.8012 94.2637 25.8637 92.3287 25.7062L91.1962 25.6274L91.86 26.3699C93.8325 28.4999 94.7887 31.1737 94.3987 33.4612C94.2037 34.6349 94.0275 34.8674 92.895 35.3174L92.2312 35.5912L92.31 36.4912C92.445 37.9574 92.1937 39.0299 91.2562 41.0024C90.7875 41.9999 90.435 42.8962 90.4762 42.9937C90.5925 43.3274 91.8825 43.9499 92.8987 44.2049L93.8962 44.4412L93.27 44.6549C92.4487 44.9099 92.2725 45.2812 92.2725 46.6274C92.2725 47.8574 92.4487 48.3674 93.345 49.7137C93.7537 50.2987 94.0275 50.9062 94.0687 51.2549C94.1475 51.8024 94.1287 51.8399 93.6787 51.9974C93.1686 52.1406 92.6441 52.2261 92.115 52.2524C90.2775 52.3687 90.1425 52.4287 89.3212 53.2087C88.5787 53.9137 88.56 53.9512 88.56 54.7312C88.56 55.8037 88.9687 57.9749 89.2237 58.2674C89.5575 58.6199 91.41 59.5387 92.1337 59.6737C92.7579 59.8304 93.4178 59.7544 93.99 59.4599V59.4524ZM66.9375 57.9899C68.13 57.0524 69.0675 56.1149 69.5925 55.3124C69.9262 54.8249 69.945 54.7274 69.7875 54.3149C69.5137 53.6887 67.7175 52.0687 66.72 51.5812C66.0553 51.2834 65.3522 51.0802 64.6312 50.9774L63.4012 50.8199L62.64 49.8637C61.0575 47.9099 60.18 46.3874 58.9275 43.4362C57.8325 40.9349 56.8762 39.4724 55.3537 38.0249C54.7275 37.4399 54.2812 36.9524 54.3187 36.9524C54.3975 36.9524 55.14 37.3237 55.9987 37.7737C57.4237 38.5349 57.6 38.5949 58.245 38.4974C60.57 38.2237 62.6212 35.5499 63.3637 31.7999C63.5775 30.7462 64.0087 29.6699 64.4587 29.0249C64.4775 29.0062 65.3775 29.5912 66.4312 30.3524C69.1087 32.2462 69.6937 32.5387 71.2162 32.5987C72.2137 32.6362 72.78 32.5612 74.5762 32.1299C78.405 31.1924 82.545 30.8212 85.065 31.1549C86.49 31.3499 88.5412 31.9762 90.0637 32.6962C91.5675 33.4012 91.86 33.4387 92.3475 33.0074C92.7562 32.6549 92.7562 32.5987 92.7562 31.2899C92.7375 29.3549 92.0325 27.2662 90.96 26.0174C90.4125 25.3724 88.8712 24.3187 87.345 23.5162C86.8024 23.2284 86.2624 22.9359 85.725 22.6387C85.0012 22.2074 84.1837 22.2674 81.9562 22.8524C79.3762 23.5162 78.6937 23.5162 75.7462 22.7549C73.245 22.1287 73.0912 22.1099 70.6275 22.4999C69.3187 22.6949 66.0375 22.5787 64.9425 22.2862C64.395 22.1287 63.8475 21.9749 63.3225 21.7799C62.3662 21.4087 60.705 21.3487 59.2012 21.6224C56.2125 22.1512 53.9475 23.7712 53.1262 25.9762C52.695 27.0899 52.755 27.6187 53.3212 27.9674C54.2212 28.5337 55.41 30.0787 55.41 30.6824C55.41 30.7199 55.1175 30.4687 54.7837 30.1162C53.9437 29.2387 53.1825 28.8449 52.2825 28.8449C51.7002 28.8611 51.134 29.0396 50.6476 29.3603C50.1613 29.681 49.7742 30.1311 49.53 30.6599C49.2672 31.35 49.0455 32.0549 48.8662 32.7712C48.3187 34.7624 47.8312 35.8199 46.7962 37.2262C45.8775 38.4974 45.7425 39.0637 46.0725 40.4887C46.8937 44.0812 48.3187 45.5287 54.2737 48.9074C57.3975 50.6849 58.9987 51.6824 60.1725 52.5599C61.0725 53.2237 61.0912 53.2649 61.0125 53.7712C60.8362 54.9449 61.5787 56.2124 63.045 57.2474C63.4162 57.5024 63.6487 57.7762 63.6487 57.9712C63.6487 58.3237 64.6462 58.8112 65.3662 58.8112C65.775 58.8112 66.09 58.6349 66.93 57.9899H66.9375ZM91.02 51.4049C93.285 51.4837 93.4012 51.3074 92.1937 49.9012C90.9225 48.4349 90.5737 47.2462 91.0425 45.9374L91.2375 45.4312L90.435 45.0412C90.1612 44.9062 89.8875 44.7674 89.6137 44.6699C89.4787 45.1987 89.34 45.7049 89.2237 46.2337C88.9312 47.4262 88.5787 50.5124 88.56 51.8212C88.56 51.9374 88.755 51.8999 89.0887 51.6862C89.5575 51.4124 89.7937 51.3749 91.0237 51.4124L91.02 51.4049ZM83.4225 51.2887C84.7912 51.2099 86.1975 51.1124 86.5687 51.0524L87.2512 50.9549L87.33 48.7087C87.4462 45.5062 87.915 43.6124 89.3025 40.5824C90.2775 38.4337 90.7087 36.5587 90.495 35.1524C90.4162 34.5487 90.3787 34.5074 89.5575 34.1549C88.0537 33.5578 86.4876 33.1314 84.8887 32.8837C83.3475 32.6699 78.8137 32.7862 77.115 33.1199C76.41 33.2362 75.1237 33.5099 74.265 33.7237C72.135 34.2112 71.0025 34.1549 69.3825 33.4499C67.7812 32.7449 66.765 32.1037 65.8087 31.2037C65.0475 30.4987 64.9687 30.4612 64.7737 30.6974C64.6162 30.8737 64.5375 31.4024 64.4812 32.5349C64.4212 34.2749 64.1475 35.1899 63.3862 36.4199C63.2171 36.673 63.0727 36.9417 62.955 37.2224C62.955 37.2824 63.54 37.9649 64.2637 38.7074C66.765 41.3062 67.995 41.9699 69.9675 41.8312C70.6125 41.7712 71.0625 41.7937 71.0625 41.8687C71.0625 42.0262 69.7912 43.0199 69.2662 43.2937C69.0112 43.4287 68.955 43.5674 68.9925 43.8599L69.3037 45.9112C69.48 47.0849 69.615 47.6287 69.7912 47.7862C70.26 48.1762 72.6825 49.4287 74.205 50.0512C76.1962 50.8537 77.2912 51.1462 78.8137 51.2812C80.6887 51.4387 80.7262 51.4387 83.4225 51.2812V51.2887ZM67.2712 49.1399C67.3087 49.0799 67.1737 47.9474 66.9187 46.6387C66.6075 44.8612 66.4312 44.2162 66.2362 44.0399C66.1012 43.9237 65.3775 43.4137 64.6537 42.8887C63.7028 42.2049 62.8018 41.4542 61.9575 40.6424L60.6112 39.3149L59.8875 39.6862L59.1262 40.0949C59.1903 40.4 59.295 40.6952 59.4375 40.9724C59.6512 41.4412 60.0825 42.5924 60.3937 43.5299C61.215 45.9712 61.86 47.1449 63.48 49.2712L64.0837 50.0737L65.235 50.2499C65.88 50.3474 66.525 50.4862 66.7012 50.5424C66.975 50.6587 67.0125 50.6024 67.0912 49.9762C67.1287 49.7024 67.1887 49.4099 67.2675 49.1362L67.2712 49.1399ZM92.0175 24.8437C93.015 24.7462 93.1912 24.6074 92.76 24.1612C92.4862 23.8874 91.86 23.8687 91.3537 24.1012C91.02 24.2587 90.945 24.2174 90.4162 23.6512C89.8687 23.0474 89.8312 23.0249 89.145 23.1037C88.5187 23.1824 88.4212 23.1637 88.3425 22.9087C88.0986 22.4898 87.7955 22.1084 87.4425 21.7762C86.9989 21.2722 86.4443 20.8781 85.8225 20.6249C84.6112 20.1562 83.9287 20.2162 82.7737 20.8612C79.4325 22.6762 79.5712 22.6574 76.3462 21.8362C73.3387 21.0749 71.0925 20.2949 70.3687 19.8037C69.765 19.3949 68.475 18.9449 67.3987 18.8062C66.5962 18.6899 66.09 18.8662 65.3287 19.4887L64.92 19.8224L65.2912 20.4674C65.7975 21.3674 65.7412 21.4237 64.98 20.7599C64.1587 20.0774 63.1837 19.6087 62.5575 19.5862C62.1075 19.5862 60.78 20.1712 60.6225 20.4262C60.5625 20.5049 60.975 20.6024 61.5225 20.6399C62.0887 20.6999 62.8687 20.8949 63.3975 21.1087C64.7662 21.6937 65.4675 21.8887 66.7162 22.0087C68.085 22.1437 70.5637 21.9899 70.8562 21.7537C71.0137 21.6187 71.4412 21.5962 72.3412 21.6749C73.5337 21.7537 74.0212 21.8699 76.8525 22.6312C78.495 23.0812 79.6462 23.0399 81.6 22.5149C82.5 22.2599 83.6325 22.0087 84.1012 21.9487C84.9037 21.8699 85.0575 21.9112 86.31 22.4774C88.3012 23.3774 89.3587 23.9437 89.9437 24.4687C90.5287 24.9749 90.6075 24.9749 92.0137 24.8587L92.0175 24.8437ZM80.8837 21.4274L82.0762 20.8012L82.0387 19.5899C82.02 18.7499 81.9787 17.9287 81.9412 17.1112L81.8437 15.8624L80.6512 16.7812C79.9462 17.3287 79.2637 17.7374 78.9712 17.7974C78.1125 17.9549 73.875 17.7974 73.4812 17.5837C72.9567 17.1962 72.4661 16.7646 72.015 16.2937L70.92 15.1799L70.9012 15.8437C70.9012 16.1962 70.8637 16.7999 70.785 17.1712C70.6875 17.8762 70.6875 17.8949 71.4487 18.8512C71.8575 19.3799 72.1912 19.8487 72.1912 19.9049C72.1912 20.2762 77.835 22.0349 79.1062 22.0537C79.515 22.0537 80.025 21.8774 80.8837 21.4274ZM78.6187 16.9912C80.025 16.7174 80.7075 15.7012 81.2362 13.1249C81.7837 10.3499 82.0575 5.99619 81.8025 4.13994C81.5662 2.45994 79.6912 1.71744 76.1175 1.83369C73.89 1.91244 72.9712 2.12619 72.21 2.77119C71.7412 3.16119 71.7412 3.20244 71.5275 5.05494C71.1375 8.60994 71.7225 13.6687 72.7387 15.5624C73.2262 16.4812 73.6575 16.8112 74.5537 16.9687C75.57 17.1449 77.7375 17.1449 78.615 16.9874L78.6187 16.9912Z" fill="black"/>
</svg>
