<svg xmlns="http://www.w3.org/2000/svg" viewBox="0 0 23.5 23.5"><g id="Слой_2" data-name="Слой 2"><g id="Слой_1-2" data-name="Слой 1"><path d="M23.5,12.75v-2H19.18a7.31,7.31,0,0,0-1.47-3.58l3.06-3.06L19.38,2.76,16.32,5.82a7.22,7.22,0,0,0-3.57-1.5V0h-2V4.32A7.31,7.31,0,0,0,7.21,5.79L4.15,2.73,2.76,4.12,5.82,7.18a7.22,7.22,0,0,0-1.5,3.57H0v2H4.32a7.31,7.31,0,0,0,1.47,3.58L2.73,19.35l1.39,1.39,3.06-3.06a7.22,7.22,0,0,0,3.57,1.5V23.5h2V19.18a7.31,7.31,0,0,0,3.58-1.47l3.06,3.06,1.39-1.39-3.06-3.06a7.22,7.22,0,0,0,1.5-3.57Zm-11.75,4.5a5.5,5.5,0,1,1,5.5-5.5A5.5,5.5,0,0,1,11.75,17.25Z"/></g></g></svg>